<?xml version="1.0" encoding="UTF-8" standalone="no"?>
<svg width="1524px" height="1690px" viewBox="0 0 1524 1690" version="1.1" xmlns="http://www.w3.org/2000/svg" xmlns:xlink="http://www.w3.org/1999/xlink">
    <!-- Generator: Sketch 39 (31667) - http://www.bohemiancoding.com/sketch -->
    <title>Group</title>
    <desc>Created with Sketch.</desc>
    <defs></defs>
    <g id="Page-4" stroke="none" stroke-width="1" fill="none" fill-rule="evenodd">
        <g id="Group" transform="translate(761.186759, 844.763834) rotate(-270.000000) translate(-761.186759, -844.763834) translate(-87.763834, 81.763834)">
            <path d="M810.043719,1248.49213 L810.043719,1208.04836 L876.663156,1208.04836 L876.663156,1248.48736 L907.578962,1248.49213 L907.578962,993.931487 L779.108837,993.931487 L779.108837,1248.49213 L810.043719,1248.49213 M488.8541,1248.50167 L488.8541,993.931487 L360.388744,993.931487 L360.388744,1248.49213 L391.318856,1248.49213 L391.318856,1208.04836 L457.938294,1208.04836 L457.938294,1248.48736 L488.8541,1248.50167 M907.578962,1519.71479 L907.578962,1291.31551 L876.663156,1291.32028 L876.663156,1331.76881 L810.043719,1331.76881 L810.043719,1291.32028 L779.108837,1291.31551 L779.108837,1519.71479 L488.8541,1519.71479 L488.863637,1291.32504 L457.938294,1291.32028 L457.938294,1331.76881 L391.314087,1331.76881 L391.314087,1291.32028 L360.388744,1291.32504 L360.388744,1519.71479 L70.1340062,1519.71479 L70.138775,1300.8387 L29.6902375,1300.8387 L29.6902375,1236.59887 L70.138775,1236.59887 L70.1340062,775.050631 L348.495481,775.050631 L348.495481,539.522069 L8.27855,539.5173 L8.27855,363.464588 L70.1435437,363.464588 L70.1483125,101.755587 L103.438956,101.760356 L103.434187,4.215575 L206.930369,4.215575 C245.743225,4.2251125 275.299937,32.61825 277.035762,70.8350125 L303.282962,70.8350125 L303.282962,363.469356 L541.191131,363.469356 L541.191131,4.22034375 L618.521181,4.215575 C637.252831,4.215575 654.706456,11.006275 667.672687,23.3430312 C680.424325,35.4747312 687.792044,52.22735 688.621806,70.8350125 L714.873775,70.8350125 L714.873775,363.469356 L824.321356,363.469356 L824.321356,539.522069 L455.553919,539.522069 L455.553919,620.409606 L496.002456,620.409606 L496.002456,710.815569 L455.553919,710.815569 L455.553919,775.050631 L1233.52302,775.050631 L1233.52302,710.815569 L1193.07926,710.815569 L1193.07926,620.409606 L1233.52779,620.409606 L1233.52302,539.522069 L862.385519,539.522069 L862.385519,363.469356 L969.434419,363.469356 L969.434419,4.22034375 L1046.5308,4.215575 C1065.27199,4.215575 1082.76376,11.006275 1095.78722,23.3382625 C1108.61039,35.4795 1116.01626,52.2368875 1116.85556,70.8350125 L1143.10752,70.8350125 L1143.10752,363.469356 L1383.40007,363.469356 L1383.40007,4.22034375 L1460.72535,4.215575 C1480.09601,4.215575 1497.88822,11.3448562 1510.83537,24.2920125 C1522.98138,36.4427875 1530.00575,52.856825 1530.82597,70.8350125 L1557.07794,70.8350125 L1557.07794,363.469356 L1690.31205,363.469356 L1690.31682,539.522069 L1342.96584,539.522069 L1342.96584,703.67675 L1609.42451,703.67675 L1609.42451,1053.41211 L1340.58146,1053.41211 L1340.58146,996.311094 L1200.20854,996.306325 L1199.86519,1519.71479 L907.578962,1519.71479" id="Fill-1731" fill="#AFB0B0"></path>
            <path d="M363.955769,997.503281 L485.287075,997.503281 L485.287075,1244.93464 L461.505319,1244.92511 L461.505319,1204.48134 L387.751831,1204.48134 L387.751831,1244.92511 L363.955769,1244.92511 L363.955769,997.503281 M782.675862,997.503281 L904.007169,997.503281 L904.007169,1244.92511 L880.230181,1244.92511 L880.230181,1204.48134 L806.471925,1204.48134 L806.471925,1244.92511 L782.675862,1244.92511 L782.675862,997.503281 M1046.52603,0.64855 L973.006212,0.65331875 L965.867394,0.65331875 L965.867394,359.897562 L858.813725,359.897562 L858.813725,543.093863 L1229.956,543.093863 L1229.96077,616.84735 L1196.65105,616.842581 L1189.51223,616.842581 L1189.51223,714.387363 L1229.956,714.387363 L1229.956,771.483606 L459.125712,771.483606 L459.125712,714.387363 L499.569481,714.387363 L499.569481,616.84735 L459.125712,616.84735 L459.125712,543.093863 L827.89315,543.093863 L827.89315,359.897562 L718.445569,359.897562 L718.445569,67.2632187 L691.9647,67.2632187 C688.597962,28.822325 658.154262,0.64855 618.530719,0.64855 L544.758156,0.65331875 L537.619337,0.65331875 L537.619337,359.897562 L306.854756,359.897562 L306.854756,67.2679875 L280.378656,67.2679875 C277.00715,28.8270937 246.56345,0.6580875 206.930369,0.64855 L99.8623937,0.64855 L99.8623937,7.78736875 L99.8719312,98.1933312 L66.5812875,98.1933312 L66.5812875,105.327381 L66.57175,359.897562 L4.711525,359.897562 L4.711525,543.089094 L344.923687,543.089094 L344.923687,771.483606 L66.5622125,771.483606 L66.5622125,778.622425 L66.5669812,1233.03184 L26.1184437,1233.03184 L26.1184437,1304.41049 L66.5669812,1304.41049 L66.5622125,1516.14776 L66.5622125,1523.28658 L363.955769,1523.28658 L363.955769,1294.89207 L387.742294,1294.89207 L387.742294,1335.33584 L461.505319,1335.33584 L461.505319,1294.89207 L485.291844,1294.89207 L485.287075,1516.14776 L485.287075,1523.28658 L782.675862,1523.28658 L782.675862,1294.8873 L806.471925,1294.8873 L806.471925,1335.33584 L880.230181,1335.33584 L880.230181,1294.8873 L904.007169,1294.8873 L904.007169,1523.28658 L1203.42744,1523.28658 L1203.43698,1516.15253 L1203.77079,999.878119 L1337.00967,999.882888 L1337.00967,1056.97913 L1612.99631,1056.97913 L1612.99631,700.114494 L1346.53763,700.114494 L1346.53763,543.089094 L1693.88384,543.089094 L1693.88384,535.955044 L1693.87907,367.036381 L1693.87907,359.897562 L1560.64497,359.897562 L1560.64497,67.2632187 L1534.1641,67.2632187 C1532.61902,49.7332937 1525.36576,33.781825 1513.35804,21.7693437 C1499.73372,8.1545625 1481.04499,0.64855 1460.73012,0.64855 L1386.96709,0.65331875 L1379.82827,0.65331875 L1379.82827,359.897562 L1146.67932,359.897562 L1146.67932,67.2679875 L1120.19368,67.2679875 C1118.61046,49.1038187 1110.95661,32.7851562 1098.24312,20.7488312 C1084.55204,7.78736875 1066.18759,0.64855 1046.52603,0.64855 M356.81695,1252.06393 L394.885881,1252.06393 L394.885881,1211.61539 L454.371269,1211.61539 L454.371269,1252.05916 L492.421125,1252.07346 L492.421125,990.364463 L356.81695,990.364463 L356.81695,1252.06393 M775.541812,1252.06393 L813.610744,1252.06393 L813.610744,1211.61539 L873.091362,1211.61539 L873.091362,1252.05916 L911.150756,1252.06393 L911.150756,990.364463 L775.541812,990.364463 L775.541812,1252.06393 M1046.52603,7.7826 C1082.21059,7.78736875 1113.37437,33.9630375 1113.36483,74.4020375 L1139.53573,74.4020375 L1139.53573,367.036381 L1386.96709,367.036381 L1386.96709,7.78736875 L1460.73012,7.78736875 C1498.79905,7.78736875 1527.34479,36.3331062 1527.34002,74.4020375 L1553.50615,74.4020375 L1553.50615,367.036381 L1686.74026,367.036381 L1686.74979,535.955044 L1339.39404,535.955044 L1339.39404,707.248544 L1605.85749,707.248544 L1605.85749,1049.84508 L1344.14849,1049.84508 L1344.14849,992.744069 L1196.64151,992.7393 L1196.29816,1516.14776 L911.150756,1516.14776 L911.150756,1287.74848 L873.091362,1287.75325 L873.091362,1328.20179 L813.610744,1328.20179 L813.610744,1287.75325 L775.541812,1287.74848 L775.541812,1516.14776 L492.421125,1516.14776 L492.430662,1287.75802 L454.371269,1287.75325 L454.371269,1328.20179 L394.881112,1328.20179 L394.881112,1287.75325 L356.81695,1287.75802 L356.81695,1516.14776 L73.7010312,1516.14776 L73.7058,1297.27168 L33.2572625,1297.27168 L33.2572625,1240.17066 L73.7058,1240.17066 L73.7010312,778.622425 L352.062506,778.622425 L352.062506,535.955044 L11.8503437,535.950275 L11.8503437,367.031613 L73.7105687,367.031613 L73.7153375,105.327381 L107.005981,105.33215 L107.005981,7.78736875 L206.930369,7.7826 C242.619694,7.7921375 273.549806,33.9678062 273.549806,74.4020375 L299.711169,74.4020375 L299.711169,367.036381 L544.758156,367.036381 L544.758156,7.78736875 L618.530719,7.78736875 C654.215275,7.78736875 685.13585,33.9678062 685.13585,74.4020375 L711.301981,74.4020375 L711.301981,367.036381 L820.754331,367.036381 L820.754331,535.955044 L451.986894,535.955044 L451.986894,623.9814 L492.430662,623.9814 L492.430662,707.248544 L451.986894,707.248544 L451.986894,778.622425 L1237.09005,778.622425 L1237.09005,707.248544 L1196.65105,707.248544 L1196.65105,623.9814 L1237.09482,623.9814 L1237.09005,535.955044 L865.952544,535.955044 L865.952544,367.036381 L973.006212,367.036381 L973.006212,7.78736875 L1046.52603,7.7826" id="Fill-1732" fill="#151616"></path>
            <polygon id="Fill-1736" fill="#FFC67C" points="147.459287 1516.14776 275.929412 1516.14776 275.929412 1468.56374 147.459287 1468.56374"></polygon>
            <polyline id="Fill-1737" fill="#85BDDB" points="166.491369 443.164706 11.8360375 443.164706 11.8360375 367.031613 73.7058 367.031613 73.7058 105.327381 166.491369 105.327381"></polyline>
            <polyline id="Fill-1738" fill="#85BDDB" points="451.986894 443.164706 604.248313 443.164706 604.248313 105.322612 544.772462 105.322612 544.772462 367.036381 451.986894 367.031613"></polyline>
            <path d="M1686.74979,443.164706 L1477.38736,443.164706 L1477.38736,9.6901 C1505.76619,16.2757437 1527.35432,41.08755 1527.35432,74.3925 L1553.52046,74.3925 L1553.52046,367.031613 L1686.74979,367.031613" id="Fill-1739" fill="#85BDDB"></path>
            <path d="M1234.71521,443.164706 L1063.41694,443.164706 L1063.41694,9.6901 C1091.79577,16.2757437 1113.38391,41.08755 1113.38391,74.3925 L1139.54527,74.3925 L1139.54527,367.031613 L1234.71521,367.031613" id="Fill-1740" fill="#85BDDB"></path>
            <path d="M820.749562,443.164706 L635.178425,443.164706 L635.178425,9.6901 C663.557256,16.2757437 685.145387,41.08755 685.145387,74.3925 L711.30675,74.3925 L711.30675,367.031613 L780.305794,367.031613 L780.305794,426.512231 L820.749562,426.507463" id="Fill-1741" fill="#85BDDB"></path>
            <polyline id="Fill-1742" fill="#85BDDB" points="392.511044 443.164706 197.42625 443.164706 197.42625 74.3925 299.725475 74.3925 299.725475 367.031613 392.511044 367.031613"></polyline>
            <polygon id="Fill-1743" fill="#FFC67C" points="147.459287 916.610975 275.929412 916.610975 275.929412 854.745981 147.459287 854.745981"></polygon>
            <polygon id="Fill-1744" fill="#FFC67C" points="147.459287 990.364463 275.929412 990.364463 275.929412 938.017894 147.459287 938.017894"></polygon>
            <polygon id="Fill-1745" fill="#FFC67C" points="639.932869 1083.14526 680.382837 1083.14526 680.382837 1021.28504 639.932869 1021.28504"></polygon>
            <polyline id="Fill-1746" fill="#FFC67C" points="680.381406 1106.93656 568.563756 1106.93656 568.563756 1021.28504 637.558031 1021.28504 637.558031 1085.5201 680.381406 1085.5201"></polyline>
            <polygon id="Fill-1747" fill="#FFDB6A" points="1344.15803 1049.84031 1427.42994 1049.84031 1427.42994 959.43435 1344.15803 959.43435"></polygon>
            <polygon id="Fill-1748" fill="#FFDB6A" points="1141.92964 1116.45498 1196.65105 1116.45498 1196.65105 942.777106 1141.92964 942.777106"></polygon>
            <polygon id="Fill-1749" fill="#FFC67C" points="568.563756 1021.07044 747.420494 1021.07044 747.420494 935.137569 568.563756 935.137569"></polygon>
            <polygon id="Fill-1750" fill="#BCEA8B" points="839.776875 990.359694 911.150756 990.359694 911.150756 940.3975 839.776875 940.3975"></polygon>
            <polygon id="Fill-1751" fill="#85BDDB" points="911.150756 1252.06392 1013.45475 1252.06392 1013.45475 938.017894 911.150756 938.017894"></polygon>
            <polygon id="Fill-1752" fill="#FFC67C" points="704.1727 1252.06392 775.546581 1252.06392 775.546581 1021.28981 704.1727 1021.28981"></polygon>
            <polygon id="Fill-1753" fill="#FFC67C" points="568.563756 1252.06392 687.515456 1252.06392 687.515456 1130.72785 568.563756 1130.72785"></polygon>
            <polygon id="Fill-1754" fill="#FFC67C" points="492.430662 1252.06393 544.772463 1252.06393 544.772463 1021.28504 492.430662 1021.28504"></polygon>
            <polygon id="Fill-1755" fill="#FFC67C" points="147.459287 1252.06393 275.929412 1252.06393 275.929412 1216.37269 147.459287 1216.37269"></polygon>
            <polygon id="Fill-1756" fill="#FFC67C" points="147.459287 1444.77388 275.929412 1444.77388 275.929412 1287.74848 147.459287 1287.74848"></polygon>
            <polyline id="Fill-1757" fill="#85BDDB" points="1298.95504 367.031613 1386.9814 367.031613 1386.98617 105.327381 1446.46202 105.327381 1446.45248 443.169475 1298.95504 443.169475"></polyline>
            <polyline id="Fill-1758" fill="#85BDDB" points="865.947775 367.031613 973.010981 367.031613 973.010981 105.327381 1032.49637 105.327381 1032.48683 443.169475 865.947775 443.169475"></polyline>
            <polyline id="Fill-1759" fill="#85BDDB" points="1339.39404 474.09005 1624.88957 474.09005 1624.88003 535.950275 1339.39404 535.950275 1339.39404 474.09005"></polyline>
            <polyline id="Fill-1760" fill="#85BDDB" points="865.952544 474.09005 1237.09959 474.09005 1237.08051 535.950275 865.952544 535.950275 865.952544 474.09005"></polyline>
            <polygon id="Fill-1761" fill="#FFDB6A" points="1234.69614 443.164706 1298.95504 443.164706 1298.95504 367.031613 1234.69614 367.031613"></polygon>
            <polyline id="Fill-1762" fill="#AFB0B0" points="989.668225 1468.56041 1118.16219 1468.56518 1118.16219 1516.14776 989.668225 1516.14776"></polyline>
            <polyline id="Fill-1763" fill="#FFDB6A" points="985.371581 1458.33621 1121.02821 1458.34097 1121.05683 1516.10008 985.400194 1516.10484"></polyline>
            <polygon id="Fill-1764" fill="#85BDDB" points="392.511044 443.164706 451.986894 443.164706 451.986894 367.031613 392.511044 367.031613"></polygon>
            <polyline id="Fill-1765" fill="#85BDDB" points="451.986894 474.09005 820.7591 474.09005 820.744794 535.950275 451.986894 535.950275 451.986894 474.09005"></polyline>
            <polyline id="Fill-1766" fill="#85BDDB" points="71.3261937 474.09005 352.067275 474.09005 352.052969 535.950275 71.3261937 535.950275 71.3261937 474.09005"></polyline>
            <polyline id="Fill-1767" fill="#FFC67C" points="299.725475 854.745981 492.435431 854.745981 492.430662 916.606206 299.725475 916.606206"></polyline>
            <polyline id="Fill-1768" fill="#FFC67C" points="356.826487 1252.06392 299.725475 1252.06392 299.725475 938.017894 492.430662 938.017894 492.425894 990.359694 356.826487 990.359694 356.826487 1252.06392"></polyline>
            <polygon id="Fill-1769" fill="#FFC67C" points="299.720706 1516.14776 356.821719 1516.14776 356.821719 1287.74848 299.720706 1287.74848"></polygon>
            <polygon id="Fill-1770" fill="#FFC67C" points="73.7058 1516.14776 123.667994 1516.14776 123.667994 1287.74848 73.7058 1287.74848"></polygon>
            <polygon id="Fill-1771" fill="#FFC67C" points="73.7058 1252.06393 123.667994 1252.06393 123.667994 854.75075 73.7058 854.75075"></polygon>
            <path d="M1118.13835,1444.77388 L989.668225,1444.77388 L989.668225,1287.74848 L1118.13835,1287.74848 L1118.13835,1444.77388 M704.1727,1252.06393 L704.1727,1021.28981 L775.541813,1021.28981 L775.546581,940.3975 L1013.45475,940.3975 L1013.45475,1252.06393 L775.532275,1252.06869 L704.1727,1252.06393 M680.381406,990.354925 L680.381406,1106.93656 L568.558988,1106.93656 L568.558988,940.3975 L746.991306,940.3975 L746.991306,990.354925 L680.381406,990.354925 M680.381406,1252.06393 L568.558988,1252.06393 L568.558988,1130.72308 L680.381406,1130.72308 L680.381406,1252.06393 M680.381406,1325.81264 L568.558988,1325.81264 L568.558988,1287.74848 L680.381406,1287.74848 L680.381406,1325.81264 M680.381406,1444.76434 L568.563756,1444.76911 L568.563756,1349.59917 L680.381406,1349.59917 L680.381406,1444.76434 M544.772462,1252.06393 L492.421125,1252.06869 L299.720706,1252.06393 L299.720706,940.3975 L492.430662,940.3975 L492.425894,1021.28981 L544.772462,1021.28981 L544.772462,1252.06393 M299.720706,854.745981 L492.425894,854.745981 L492.425894,916.601438 L299.720706,916.601438 L299.720706,854.745981 M568.558988,852.371144 L746.996075,852.371144 L746.996075,916.606206 L568.558988,916.606206 L568.558988,852.371144 M775.546581,849.991538 L1013.45475,849.991538 L1013.45475,916.606206 L775.546581,916.606206 L775.546581,849.991538 M1037.24604,940.3975 L1115.75874,940.3975 L1115.75874,1252.06393 L1037.24604,1252.06393 L1037.24604,940.3975 M1037.24604,849.991538 L1115.75874,849.991538 L1115.75874,916.606206 L1037.24604,916.606206 L1037.24604,849.991538 M275.929412,916.606206 L147.459287,916.606206 L147.459287,854.75075 L275.929412,854.75075 L275.929412,916.606206 M275.929412,1252.06393 L147.459287,1252.06393 L147.459287,940.3975 L275.929412,940.3975 L275.929412,1252.06393 M275.929412,1444.76911 L147.459287,1444.76911 L147.459287,1287.74848 L275.929412,1287.74848 L275.929412,1444.76911 M1686.74979,474.085281 L1686.74979,443.155169 L1477.38259,443.155169 L1477.38259,9.60903125 C1468.19321,6.98621875 1446.44771,7.7826 1446.44771,7.7826 L1446.44771,443.155169 L1063.42171,443.155169 L1063.42171,9.67579375 C1055.69157,6.91945625 1032.48206,7.7826 1032.48206,7.7826 L1032.48206,443.155169 L865.947775,443.159938 L865.947775,474.085281 L1237.08051,474.085281 L1237.08051,778.617656 L1298.95028,778.617656 L1298.95028,819.056656 L775.546581,819.061425 L775.546581,778.617656 L746.986537,778.617656 L746.986537,819.061425 L392.506275,819.056656 L392.506275,778.617656 L451.982125,778.617656 L451.982125,474.09005 L820.744794,474.09005 L820.744794,443.155169 L635.164119,443.159938 L635.164119,9.67579375 L604.238775,7.7826 L604.238775,443.159938 L197.407175,443.159938 L197.407175,7.7826 L166.481831,7.7826 L166.481831,443.159938 L11.845575,443.159938 L11.845575,474.09005 L392.496737,474.09005 L392.496737,535.945506 L352.052969,535.945506 L352.052969,623.971863 L392.506275,623.971863 L392.506275,707.239006 L352.062506,707.243775 L352.062506,819.061425 L73.7058,819.061425 L73.7058,854.745981 L123.663225,854.745981 L123.663225,1252.06393 L73.7058,1252.06393 L73.7058,1287.74371 L123.663225,1287.74371 L123.663225,1516.14299 L147.459287,1516.14299 L147.459287,1468.56041 L275.929412,1468.56041 L275.929412,1516.14299 L299.720706,1516.14299 L299.720706,1287.74848 L544.772462,1287.74848 L544.772462,1516.14299 L568.563756,1516.14299 L568.563756,1468.56041 L680.381406,1468.55564 L680.381406,1516.13823 L704.1727,1516.13823 L704.1727,1287.74848 L965.867394,1287.74848 L965.867394,1516.14776 L989.663456,1516.14776 L989.663456,1468.56518 L1118.13835,1468.56518 L1118.13835,1516.14776 L1141.92964,1516.14776 L1141.92964,849.991538 L1296.57067,849.991538 L1296.57067,940.3975 L1265.64056,940.3975 L1265.64056,992.734531 L1339.39404,992.734531 L1339.39404,707.239006 L1298.94074,707.239006 L1298.94074,623.971863 L1339.38451,623.971863 L1339.38451,535.940738 L1298.95028,535.940738 L1298.95028,474.085281 L1686.74979,474.085281" id="Fill-1782" fill="#FFFFFF"></path>
            <polygon id="Fill-1784" fill="#AFB0B0" points="703.896112 1337.71068 775.546581 1337.71068 775.546581 1287.74848 703.896112 1287.74848"></polygon>
            <polyline id="Fill-1791" fill="#4E4E4D" points="73.7058 778.617656 164.116531 778.617656 164.111763 819.066194 73.7058 819.066194 73.7058 778.617656"></polyline>
            <polygon id="Fill-1792" fill="#4E4E4D" points="511.462744 819.066194 601.873475 819.066194 601.873475 778.620041 511.462744 778.620041"></polygon>
            <polygon id="Fill-1793" fill="#4E4E4D" points="1089.58784 819.061425 1179.99857 819.061425 1179.99857 778.619564 1089.58784 778.619564"></polygon>
            <polygon id="Fill-1794" fill="#4E4E4D" points="544.772463 105.327381 604.248312 105.327381 604.248312 7.7826 544.772463 7.7826"></polygon>
            <polygon id="Fill-1795" fill="#4E4E4D" points="973.01575 105.327381 1032.4916 105.327381 1032.4916 7.7826 973.01575 7.7826"></polygon>
            <polygon id="Fill-1796" fill="#4E4E4D" points="11.845575 535.950275 71.3261938 535.950275 71.3261938 474.094819 11.845575 474.094819"></polygon>
            <polygon id="Fill-1797" fill="#4E4E4D" points="1386.9814 105.327381 1446.45725 105.327381 1446.45725 7.7826 1386.9814 7.7826"></polygon>
            <polygon id="Fill-1798" fill="#4E4E4D" points="1624.88957 535.950275 1686.74503 535.950275 1686.74503 474.094819 1624.88957 474.094819"></polygon>
        </g>
    </g>
</svg>