<?xml version="1.0" encoding="UTF-8" standalone="no"?>
<svg width="1108px" height="1233px" viewBox="0 0 1108 1233" version="1.1" xmlns="http://www.w3.org/2000/svg" xmlns:xlink="http://www.w3.org/1999/xlink">
    <!-- Generator: Sketch 39 (31667) - http://www.bohemiancoding.com/sketch -->
    <title>Gebaeudeplan</title>
    <desc>Created with Sketch.</desc>
    <defs></defs>
    <g id="Page-4" stroke="none" stroke-width="1" fill="none" fill-rule="evenodd">
        <path d="M1071.5,621.5 L1071.5,753.560593" id="Line" stroke="#979797" stroke-linecap="square"></path>
        <g id="Group" transform="translate(553.900024, 616.544249) rotate(-270.000000) translate(-553.900024, -616.544249) translate(-62.000000, 63.000000)">
            <path d="M587.673712,905.760995 L587.673712,876.419691 L636.005044,876.419691 L636.005044,905.757536 L658.433965,905.760995 L658.433965,721.081336 L565.230952,721.081336 L565.230952,905.760995 L587.673712,905.760995 M354.655801,905.767915 L354.655801,721.081336 L261.456247,721.081336 L261.456247,905.760995 L283.895547,905.760995 L283.895547,876.419691 L332.226879,876.419691 L332.226879,905.757536 L354.655801,905.767915 M658.433965,1102.52868 L658.433965,936.828666 L636.005044,936.832126 L636.005044,966.176891 L587.673712,966.176891 L587.673712,936.832126 L565.230952,936.828666 L565.230952,1102.52868 L354.655801,1102.52868 L354.66272,936.835586 L332.226879,936.832126 L332.226879,966.176891 L283.892088,966.176891 L283.892088,936.832126 L261.456247,936.835586 L261.456247,1102.52868 L50.8810955,1102.52868 L50.8845551,943.737591 L21.5397906,943.737591 L21.5397906,897.132624 L50.8845551,897.132624 L50.8810955,562.286789 L252.827876,562.286789 L252.827876,391.414598 L6.0059551,391.411139 L6.0059551,263.687722 L50.8880148,263.687722 L50.8914744,73.8220449 L75.0433019,73.8255046 L75.0398423,3.05833198 L150.12466,3.05833198 C178.282764,3.06525128 199.725684,23.6640167 200.984998,51.3896642 L220.02692,51.3896642 L220.02692,263.691182 L392.625476,263.691182 L392.625476,3.06179163 L448.727186,3.05833198 C462.316697,3.05833198 474.979022,7.9848758 484.385815,16.9349944 C493.636923,25.7363479 498.982085,37.8901039 499.584064,51.3896642 L518.629446,51.3896642 L518.629446,263.691182 L598.031909,263.691182 L598.031909,391.414598 L330.497054,391.414598 L330.497054,450.097208 L359.841818,450.097208 L359.841818,515.685282 L330.497054,515.685282 L330.497054,562.286789 L894.901149,562.286789 L894.901149,515.685282 L865.559844,515.685282 L865.559844,450.097208 L894.904609,450.097208 L894.901149,391.414598 L625.646847,391.414598 L625.646847,263.691182 L703.309106,263.691182 L703.309106,3.06179163 L759.241292,3.05833198 C772.837723,3.05833198 785.527725,7.9848758 794.976033,16.9315347 C804.279036,25.7398076 809.651875,37.8970232 810.260774,51.3896642 L829.306156,51.3896642 L829.306156,263.691182 L1003.63454,263.691182 L1003.63454,3.06179163 L1059.73279,3.05833198 C1073.78589,3.05833198 1086.69385,8.23051106 1096.08681,17.623465 C1104.89854,26.4386572 1109.99461,38.3467779 1110.58967,51.3896642 L1129.63505,51.3896642 L1129.63505,263.691182 L1226.29425,263.691182 L1226.29771,391.414598 L974.300152,391.414598 L974.300152,510.506184 L1167.61164,510.506184 L1167.61164,764.23357 L972.570327,764.23357 L972.570327,722.807702 L870.732023,722.804242 L870.482929,1102.52868 L658.433965,1102.52868" id="Fill-1731" fill="#AFB0B0"></path>
            <path d="M264.044067,723.672615 L352.067981,723.672615 L352.067981,903.180095 L334.814699,903.173176 L334.814699,873.831871 L281.307728,873.831871 L281.307728,903.173176 L264.044067,903.173176 L264.044067,723.672615 M567.818772,723.672615 L655.842686,723.672615 L655.842686,903.173176 L638.592864,903.173176 L638.592864,873.831871 L585.082433,873.831871 L585.082433,903.173176 L567.818772,903.173176 L567.818772,723.672615 M759.237833,0.470512612 L705.900385,0.473972263 L700.721286,0.473972263 L700.721286,261.099903 L623.055568,261.099903 L623.055568,394.005877 L892.31333,394.005877 L892.31679,447.512848 L868.151123,447.509389 L862.972025,447.509389 L862.972025,518.276561 L892.31333,518.276561 L892.31333,559.698969 L333.088333,559.698969 L333.088333,518.276561 L362.429638,518.276561 L362.429638,447.512848 L333.088333,447.512848 L333.088333,394.005877 L600.623188,394.005877 L600.623188,261.099903 L521.220725,261.099903 L521.220725,48.7983852 L502.00928,48.7983852 C499.566766,20.910134 477.48035,0.470512612 448.734105,0.470512612 L395.213296,0.473972263 L390.034197,0.473972263 L390.034197,261.099903 L222.618199,261.099903 L222.618199,48.8018449 L203.410213,48.8018449 C200.96424,20.9135937 178.877824,0.477431915 150.12466,0.470512612 L72.4485633,0.470512612 L72.4485633,5.64961099 L72.4554826,71.2376852 L48.3036551,71.2376852 L48.3036551,76.413324 L48.2967358,261.099903 L3.41813574,261.099903 L3.41813574,394.002418 L250.236597,394.002418 L250.236597,559.698969 L48.2898164,559.698969 L48.2898164,564.878068 L48.2932761,894.544805 L18.9485116,894.544805 L18.9485116,946.32887 L48.2932761,946.32887 L48.2898164,1099.94086 L48.2898164,1105.11996 L264.044067,1105.11996 L264.044067,939.423405 L281.300809,939.423405 L281.300809,968.76471 L334.814699,968.76471 L334.814699,939.423405 L352.071441,939.423405 L352.067981,1099.94086 L352.067981,1105.11996 L567.818772,1105.11996 L567.818772,939.419945 L585.082433,939.419945 L585.082433,968.76471 L638.592864,968.76471 L638.592864,939.419945 L655.842686,939.419945 L655.842686,1105.11996 L873.067288,1105.11996 L873.074208,1099.94432 L873.316383,725.395521 L969.979048,725.398981 L969.979048,766.821389 L1170.20292,766.821389 L1170.20292,507.921824 L976.891432,507.921824 L976.891432,394.002418 L1228.88553,394.002418 L1228.88553,388.826779 L1228.88207,266.279001 L1228.88207,261.099903 L1132.22287,261.099903 L1132.22287,48.7983852 L1113.01142,48.7983852 C1111.89049,36.0807061 1106.62836,24.5081716 1097.91696,15.7933094 C1088.03274,5.91600416 1074.47436,0.470512612 1059.73625,0.470512612 L1006.22236,0.473972263 L1001.04326,0.473972263 L1001.04326,261.099903 L831.897435,261.099903 L831.897435,48.8018449 L812.68253,48.8018449 C811.533926,35.6240321 805.981185,23.7851045 796.757754,15.0529439 C786.825094,5.64961099 773.501976,0.470512612 759.237833,0.470512612 M258.864968,908.352274 L286.483367,908.352274 L286.483367,879.00751 L329.63906,879.00751 L329.63906,908.348815 L357.24362,908.359194 L357.24362,718.493516 L258.864968,718.493516 L258.864968,908.352274 M562.643133,908.352274 L590.261531,908.352274 L590.261531,879.00751 L633.413765,879.00751 L633.413765,908.348815 L661.025244,908.352274 L661.025244,718.493516 L562.643133,718.493516 L562.643133,908.352274 M759.237833,5.64615134 C785.126405,5.64961099 807.735228,24.6396384 807.728309,53.9774836 L826.714877,53.9774836 L826.714877,266.279001 L1006.22236,266.279001 L1006.22236,5.64961099 L1059.73625,5.64961099 C1087.35465,5.64961099 1108.06412,26.3590852 1108.06066,53.9774836 L1127.04377,53.9774836 L1127.04377,266.279001 L1223.70297,266.279001 L1223.70989,388.826779 L971.708873,388.826779 L971.708873,513.097463 L1165.02382,513.097463 L1165.02382,761.64575 L975.158146,761.64575 L975.158146,720.219882 L868.144204,720.216423 L867.895109,1099.94086 L661.025244,1099.94086 L661.025244,934.240847 L633.413765,934.244307 L633.413765,963.589071 L590.261531,963.589071 L590.261531,934.244307 L562.643133,934.240847 L562.643133,1099.94086 L357.24362,1099.94086 L357.250539,934.247766 L329.63906,934.244307 L329.63906,963.589071 L286.479907,963.589071 L286.479907,934.244307 L258.864968,934.247766 L258.864968,1099.94086 L53.4689148,1099.94086 L53.4723745,941.149771 L24.12761,941.149771 L24.12761,899.723904 L53.4723745,899.723904 L53.4689148,564.878068 L255.415696,564.878068 L255.415696,388.826779 L8.59723412,388.823319 L8.59723412,266.275542 L53.4758341,266.275542 L53.4792938,76.413324 L77.6311213,76.4167836 L77.6311213,5.64961099 L150.12466,5.64615134 C176.016692,5.65307065 198.455992,24.643098 198.455992,53.9774836 L217.435641,53.9774836 L217.435641,266.279001 L395.213296,266.279001 L395.213296,5.64961099 L448.734105,5.64961099 C474.622678,5.64961099 497.055059,24.643098 497.055059,53.9774836 L516.038167,53.9774836 L516.038167,266.279001 L595.444089,266.279001 L595.444089,388.826779 L327.909234,388.826779 L327.909234,452.688487 L357.250539,452.688487 L357.250539,513.097463 L327.909234,513.097463 L327.909234,564.878068 L897.488969,564.878068 L897.488969,513.097463 L868.151123,513.097463 L868.151123,452.688487 L897.492428,452.688487 L897.488969,388.826779 L628.234667,388.826779 L628.234667,266.279001 L705.900385,266.279001 L705.900385,5.64961099 L759.237833,5.64615134" id="Fill-1732" fill="#151616"></path>
            <polygon id="Fill-1736" fill="#FFC67C" points="106.979345 1099.94086 200.182358 1099.94086 200.182358 1065.41942 106.979345 1065.41942"></polygon>
            <polyline id="Fill-1737" fill="#85BDDB" points="120.786815 321.508879 8.58685517 321.508879 8.58685517 266.275542 53.4723745 266.275542 53.4723745 76.413324 120.786815 76.413324"></polyline>
            <polyline id="Fill-1738" fill="#85BDDB" points="327.909234 321.508879 438.372449 321.508879 438.372449 76.4098643 395.223675 76.4098643 395.223675 266.279001 327.909234 266.275542"></polyline>
            <path d="M1223.70989,321.508879 L1071.82081,321.508879 L1071.82081,7.03001197 C1092.4092,11.8077908 1108.07104,29.8083578 1108.07104,53.9705643 L1127.05415,53.9705643 L1127.05415,266.275542 L1223.70989,266.275542" id="Fill-1739" fill="#85BDDB"></path>
            <path d="M895.766062,321.508879 L771.491919,321.508879 L771.491919,7.03001197 C792.080305,11.8077908 807.742148,29.8083578 807.742148,53.9705643 L826.721796,53.9705643 L826.721796,266.275542 L895.766062,266.275542" id="Fill-1740" fill="#85BDDB"></path>
            <path d="M595.44063,321.508879 L460.811749,321.508879 L460.811749,7.03001197 C481.400135,11.8077908 497.061978,29.8083578 497.061978,53.9705643 L516.041626,53.9705643 L516.041626,266.275542 L566.099325,266.275542 L566.099325,309.427776 L595.44063,309.424316" id="Fill-1741" fill="#85BDDB"></path>
            <polyline id="Fill-1742" fill="#85BDDB" points="284.76046 321.508879 143.229575 321.508879 143.229575 53.9705643 217.44602 53.9705643 217.44602 266.275542 284.76046 266.275542"></polyline>
            <polygon id="Fill-1743" fill="#FFC67C" points="106.979345 664.986545 200.182358 664.986545 200.182358 620.104486 106.979345 620.104486"></polygon>
            <polygon id="Fill-1744" fill="#FFC67C" points="106.979345 718.493516 200.182358 718.493516 200.182358 680.516921 106.979345 680.516921"></polygon>
            <polygon id="Fill-1745" fill="#FFC67C" points="464.261022 785.804497 493.606824 785.804497 493.606824 740.925897 464.261022 740.925897"></polygon>
            <polyline id="Fill-1746" fill="#FFC67C" points="493.605786 803.064699 412.483876 803.064699 412.483876 740.925897 462.538115 740.925897 462.538115 787.527403 493.605786 787.527403"></polyline>
            <polygon id="Fill-1747" fill="#FFDB6A" points="975.165065 761.642291 1035.5775 761.642291 1035.5775 696.054216 975.165065 696.054216"></polygon>
            <polygon id="Fill-1748" fill="#FFDB6A" points="828.451622 809.970163 868.151123 809.970163 868.151123 683.969653 828.451622 683.969653"></polygon>
            <polygon id="Fill-1749" fill="#FFC67C" points="412.483876 740.770213 542.241568 740.770213 542.241568 678.427292 412.483876 678.427292"></polygon>
            <polygon id="Fill-1750" fill="#BCEA8B" points="609.244639 718.490057 661.025244 718.490057 661.025244 682.243287 609.244639 682.243287"></polygon>
            <polygon id="Fill-1751" fill="#85BDDB" points="661.025244 908.352274 735.245149 908.352274 735.245149 680.516921 661.025244 680.516921"></polygon>
            <polygon id="Fill-1752" fill="#FFC67C" points="510.865988 908.352274 562.646593 908.352274 562.646593 740.929357 510.865988 740.929357"></polygon>
            <polygon id="Fill-1753" fill="#FFC67C" points="412.483876 908.352274 498.781425 908.352274 498.781425 820.3249 412.483876 820.3249"></polygon>
            <polygon id="Fill-1754" fill="#FFC67C" points="357.250539 908.352274 395.223675 908.352274 395.223675 740.925897 357.250539 740.925897"></polygon>
            <polygon id="Fill-1755" fill="#FFC67C" points="106.979345 908.352274 200.182358 908.352274 200.182358 882.458858 106.979345 882.458858"></polygon>
            <polygon id="Fill-1756" fill="#FFC67C" points="106.979345 1048.16025 200.182358 1048.16025 200.182358 934.240847 106.979345 934.240847"></polygon>
            <polyline id="Fill-1757" fill="#85BDDB" points="942.371028 266.275542 1006.23274 266.275542 1006.2362 76.413324 1049.38497 76.413324 1049.37805 321.512339 942.371028 321.512339"></polyline>
            <polyline id="Fill-1758" fill="#85BDDB" points="628.231207 266.275542 705.903844 266.275542 705.903844 76.413324 749.059538 76.413324 749.052618 321.512339 628.231207 321.512339"></polyline>
            <polyline id="Fill-1759" fill="#85BDDB" points="971.708873 343.944719 1178.83129 343.944719 1178.82437 388.823319 971.708873 388.823319 971.708873 343.944719"></polyline>
            <polyline id="Fill-1760" fill="#85BDDB" points="628.234667 343.944719 897.495888 343.944719 897.482049 388.823319 628.234667 388.823319 628.234667 343.944719"></polyline>
            <polygon id="Fill-1761" fill="#FFDB6A" points="895.752224 321.508879 942.371028 321.508879 942.371028 266.275542 895.752224 266.275542"></polygon>
            <polyline id="Fill-1762" fill="#AFB0B0" points="717.988407 1065.417 811.208718 1065.42046 811.208718 1099.94086 717.988407 1099.94086"></polyline>
            <polyline id="Fill-1763" fill="#FFDB6A" points="714.871261 1057.9995 813.287969 1058.00296 813.308727 1099.90626 714.892019 1099.90972"></polyline>
            <polygon id="Fill-1764" fill="#85BDDB" points="284.76046 321.508879 327.909234 321.508879 327.909234 266.275542 284.76046 266.275542"></polygon>
            <polyline id="Fill-1765" fill="#85BDDB" points="327.909234 343.944719 595.447549 343.944719 595.43717 388.823319 327.909234 388.823319 327.909234 343.944719"></polyline>
            <polyline id="Fill-1766" fill="#85BDDB" points="51.7460084 343.944719 255.419155 343.944719 255.408776 388.823319 51.7460084 388.823319 51.7460084 343.944719"></polyline>
            <polyline id="Fill-1767" fill="#FFC67C" points="217.44602 620.104486 357.253999 620.104486 357.250539 664.983086 217.44602 664.983086"></polyline>
            <polyline id="Fill-1768" fill="#FFC67C" points="258.871887 908.352274 217.44602 908.352274 217.44602 680.516921 357.250539 680.516921 357.24708 718.490057 258.871887 718.490057 258.871887 908.352274"></polyline>
            <polygon id="Fill-1769" fill="#FFC67C" points="217.44256 1099.94086 258.868428 1099.94086 258.868428 934.240847 217.44256 934.240847"></polygon>
            <polygon id="Fill-1770" fill="#FFC67C" points="53.4723745 1099.94086 89.7191439 1099.94086 89.7191439 934.240847 53.4723745 934.240847"></polygon>
            <polygon id="Fill-1771" fill="#FFC67C" points="53.4723745 908.352274 89.7191439 908.352274 89.7191439 620.107945 53.4723745 620.107945"></polygon>
            <path d="M811.19142,1048.16025 L717.988407,1048.16025 L717.988407,934.240847 L811.19142,934.240847 L811.19142,1048.16025 M510.865988,908.352274 L510.865988,740.929357 L562.643133,740.929357 L562.646593,682.243287 L735.245149,682.243287 L735.245149,908.352274 L562.636214,908.355734 L510.865988,908.352274 M493.605786,718.486597 L493.605786,803.064699 L412.480417,803.064699 L412.480417,682.243287 L541.930199,682.243287 L541.930199,718.486597 L493.605786,718.486597 M493.605786,908.352274 L412.480417,908.352274 L412.480417,820.321441 L493.605786,820.321441 L493.605786,908.352274 M493.605786,961.855786 L412.480417,961.855786 L412.480417,934.240847 L493.605786,934.240847 L493.605786,961.855786 M493.605786,1048.15333 L412.483876,1048.15679 L412.483876,979.112528 L493.605786,979.112528 L493.605786,1048.15333 M395.223675,908.352274 L357.24362,908.355734 L217.44256,908.352274 L217.44256,682.243287 L357.250539,682.243287 L357.24708,740.929357 L395.223675,740.929357 L395.223675,908.352274 M217.44256,620.104486 L357.24708,620.104486 L357.24708,664.979626 L217.44256,664.979626 L217.44256,620.104486 M412.480417,618.381579 L541.933659,618.381579 L541.933659,664.983086 L412.480417,664.983086 L412.480417,618.381579 M562.646593,616.655213 L735.245149,616.655213 L735.245149,664.983086 L562.646593,664.983086 L562.646593,616.655213 M752.505351,682.243287 L809.465054,682.243287 L809.465054,908.352274 L752.505351,908.352274 L752.505351,682.243287 M752.505351,616.655213 L809.465054,616.655213 L809.465054,664.983086 L752.505351,664.983086 L752.505351,616.655213 M200.182358,664.983086 L106.979345,664.983086 L106.979345,620.107945 L200.182358,620.107945 L200.182358,664.983086 M200.182358,908.352274 L106.979345,908.352274 L106.979345,682.243287 L200.182358,682.243287 L200.182358,908.352274 M200.182358,1048.15679 L106.979345,1048.15679 L106.979345,934.240847 L200.182358,934.240847 L200.182358,1048.15679 M1223.70989,343.94126 L1223.70989,321.50196 L1071.81735,321.50196 L1071.81735,6.97119789 C1065.1506,5.06838953 1049.37459,5.64615134 1049.37459,5.64615134 L1049.37459,321.50196 L771.495378,321.50196 L771.495378,7.01963301 C765.887283,5.01995441 749.049159,5.64615134 749.049159,5.64615134 L749.049159,321.50196 L628.231207,321.505419 L628.231207,343.94126 L897.482049,343.94126 L897.482049,564.874608 L942.367569,564.874608 L942.367569,594.212453 L562.646593,594.215913 L562.646593,564.874608 L541.926739,564.874608 L541.926739,594.215913 L284.757,594.212453 L284.757,564.874608 L327.905775,564.874608 L327.905775,343.944719 L595.43717,343.944719 L595.43717,321.50196 L460.80137,321.505419 L460.80137,7.01963301 L438.36553,5.64615134 L438.36553,321.505419 L143.215736,321.505419 L143.215736,5.64615134 L120.779896,5.64615134 L120.779896,321.505419 L8.59377447,321.505419 L8.59377447,343.944719 L284.750081,343.944719 L284.750081,388.81986 L255.408776,388.81986 L255.408776,452.681568 L284.757,452.681568 L284.757,513.090544 L255.415696,513.094003 L255.415696,594.215913 L53.4723745,594.215913 L53.4723745,620.104486 L89.7156842,620.104486 L89.7156842,908.352274 L53.4723745,908.352274 L53.4723745,934.237387 L89.7156842,934.237387 L89.7156842,1099.9374 L106.979345,1099.9374 L106.979345,1065.417 L200.182358,1065.417 L200.182358,1099.9374 L217.44256,1099.9374 L217.44256,934.240847 L395.223675,934.240847 L395.223675,1099.9374 L412.483876,1099.9374 L412.483876,1065.417 L493.605786,1065.41354 L493.605786,1099.93394 L510.865988,1099.93394 L510.865988,934.240847 L700.721286,934.240847 L700.721286,1099.94086 L717.984948,1099.94086 L717.984948,1065.42046 L811.19142,1065.42046 L811.19142,1099.94086 L828.451622,1099.94086 L828.451622,616.655213 L940.641202,616.655213 L940.641202,682.243287 L918.201902,682.243287 L918.201902,720.212963 L971.708873,720.212963 L971.708873,513.090544 L942.360649,513.090544 L942.360649,452.681568 L971.701954,452.681568 L971.701954,388.8164 L942.367569,388.8164 L942.367569,343.94126 L1223.70989,343.94126" id="Fill-1782" fill="#FFFFFF"></path>
            <polygon id="Fill-1784" fill="#AFB0B0" points="510.665328 970.487616 562.646593 970.487616 562.646593 934.240847 510.665328 934.240847"></polygon>
            <polyline id="Fill-1791" fill="#4E4E4D" points="53.4723745 564.874608 119.063908 564.874608 119.060449 594.219373 53.4723745 594.219373 53.4723745 564.874608"></polyline>
            <polygon id="Fill-1792" fill="#4E4E4D" points="371.058009 594.219373 436.649542 594.219373 436.649542 564.876338 371.058009 564.876338"></polygon>
            <polygon id="Fill-1793" fill="#4E4E4D" points="790.478486 594.215913 856.07002 594.215913 856.07002 564.875992 790.478486 564.875992"></polygon>
            <polygon id="Fill-1794" fill="#4E4E4D" points="395.223675 76.413324 438.372449 76.413324 438.372449 5.64615134 395.223675 5.64615134"></polygon>
            <polygon id="Fill-1795" fill="#4E4E4D" points="705.907304 76.413324 749.056078 76.413324 749.056078 5.64615134 705.907304 5.64615134"></polygon>
            <polygon id="Fill-1796" fill="#4E4E4D" points="8.59377447 388.823319 51.7460084 388.823319 51.7460084 343.948179 8.59377447 343.948179"></polygon>
            <polygon id="Fill-1797" fill="#4E4E4D" points="1006.23274 76.413324 1049.38151 76.413324 1049.38151 5.64615134 1006.23274 5.64615134"></polygon>
            <polygon id="Fill-1798" fill="#4E4E4D" points="1178.83129 388.823319 1223.70643 388.823319 1223.70643 343.948179 1178.83129 343.948179"></polygon>
        </g>
    </g>
</svg>