<?xml version="1.0" encoding="UTF-8" standalone="no"?>
<svg width="356px" height="320px" viewBox="0 0 356 320" version="1.1" xmlns="http://www.w3.org/2000/svg" xmlns:xlink="http://www.w3.org/1999/xlink">
    <!-- Generator: Sketch 39 (31667) - http://www.bohemiancoding.com/sketch -->
    <title>Gebaeudeplan</title>
    <desc>Created with Sketch.</desc>
    <defs></defs>
    <g id="Page-4" stroke="none" stroke-width="1" fill="none" fill-rule="evenodd">
        <path d="M169.865,261.807 L169.865,253.326 L183.835,253.326 L183.835,261.806 L190.318,261.807 L190.318,208.426 L163.378,208.426 L163.378,261.807 L169.865,261.807 M102.512,261.809 L102.512,208.426 L75.573,208.426 L75.573,261.807 L82.059,261.807 L82.059,253.326 L96.029,253.326 L96.029,261.806 L102.512,261.809 M190.318,318.682 L190.318,270.787 L183.835,270.788 L183.835,279.27 L169.865,279.27 L169.865,270.788 L163.378,270.787 L163.378,318.682 L102.512,318.682 L102.514,270.789 L96.029,270.788 L96.029,279.27 L82.058,279.27 L82.058,270.788 L75.573,270.789 L75.573,318.682 L14.707,318.682 L14.708,272.784 L6.226,272.784 L6.226,259.313 L14.708,259.313 L14.707,162.527 L73.079,162.527 L73.079,113.137 L1.736,113.136 L1.736,76.218 L14.709,76.218 L14.71,21.338 L21.691,21.339 L21.69,0.884 L43.393,0.884 C51.532,0.886 57.73,6.84 58.094,14.854 L63.598,14.854 L63.598,76.219 L113.487,76.219 L113.487,0.885 L129.703,0.884 C133.631,0.884 137.291,2.308 140.01,4.895 C142.684,7.439 144.229,10.952 144.403,14.854 L149.908,14.854 L149.908,76.219 L172.859,76.219 L172.859,113.137 L95.529,113.137 L95.529,130.099 L104.011,130.099 L104.011,149.057 L95.529,149.057 L95.529,162.527 L258.668,162.527 L258.668,149.057 L250.187,149.057 L250.187,130.099 L258.669,130.099 L258.668,113.137 L180.841,113.137 L180.841,76.219 L203.289,76.219 L203.289,0.885 L219.456,0.884 C223.386,0.884 227.054,2.308 229.785,4.894 C232.474,7.44 234.027,10.954 234.203,14.854 L239.708,14.854 L239.708,76.219 L290.097,76.219 L290.097,0.885 L306.312,0.884 C310.374,0.884 314.105,2.379 316.82,5.094 C319.367,7.642 320.84,11.084 321.012,14.854 L326.517,14.854 L326.517,76.219 L354.456,76.219 L354.457,113.137 L281.618,113.137 L281.618,147.56 L337.494,147.56 L337.494,220.899 L281.118,220.899 L281.118,208.925 L251.682,208.924 L251.61,318.682 L190.318,318.682" id="Fill-1731" fill="#AFB0B0"></path>
        <path d="M76.321,209.175 L101.764,209.175 L101.764,261.061 L96.777,261.059 L96.777,252.578 L81.311,252.578 L81.311,261.059 L76.321,261.059 L76.321,209.175 M164.126,209.175 L189.569,209.175 L189.569,261.059 L184.583,261.059 L184.583,252.578 L169.116,252.578 L169.116,261.059 L164.126,261.059 L164.126,209.175 M219.455,0.136 L204.038,0.137 L202.541,0.137 L202.541,75.47 L180.092,75.47 L180.092,113.886 L257.92,113.886 L257.921,129.352 L250.936,129.351 L249.439,129.351 L249.439,149.806 L257.92,149.806 L257.92,161.779 L96.278,161.779 L96.278,149.806 L104.759,149.806 L104.759,129.352 L96.278,129.352 L96.278,113.886 L173.608,113.886 L173.608,75.47 L150.657,75.47 L150.657,14.105 L145.104,14.105 C144.398,6.044 138.014,0.136 129.705,0.136 L114.235,0.137 L112.738,0.137 L112.738,75.47 L64.347,75.47 L64.347,14.106 L58.795,14.106 C58.088,6.045 51.704,0.138 43.393,0.136 L20.941,0.136 L20.941,1.633 L20.943,20.591 L13.962,20.591 L13.962,22.087 L13.96,75.47 L0.988,75.47 L0.988,113.885 L72.33,113.885 L72.33,161.779 L13.958,161.779 L13.958,163.276 L13.959,258.565 L5.477,258.565 L5.477,273.533 L13.959,273.533 L13.958,317.934 L13.958,319.431 L76.321,319.431 L76.321,271.537 L81.309,271.537 L81.309,280.018 L96.777,280.018 L96.777,271.537 L101.765,271.537 L101.764,317.934 L101.764,319.431 L164.126,319.431 L164.126,271.536 L169.116,271.536 L169.116,280.018 L184.583,280.018 L184.583,271.536 L189.569,271.536 L189.569,319.431 L252.357,319.431 L252.359,317.935 L252.429,209.673 L280.369,209.674 L280.369,221.647 L338.243,221.647 L338.243,146.813 L282.367,146.813 L282.367,113.885 L355.205,113.885 L355.205,112.389 L355.204,76.967 L355.204,75.47 L327.265,75.47 L327.265,14.105 L321.712,14.105 C321.388,10.429 319.867,7.084 317.349,4.565 C314.492,1.71 310.573,0.136 306.313,0.136 L290.845,0.137 L289.348,0.137 L289.348,75.47 L240.457,75.47 L240.457,14.106 L234.903,14.106 C234.571,10.297 232.966,6.875 230.3,4.351 C227.429,1.633 223.578,0.136 219.455,0.136 M74.824,262.556 L82.807,262.556 L82.807,254.074 L95.281,254.074 L95.281,262.555 L103.26,262.558 L103.26,207.678 L74.824,207.678 L74.824,262.556 M162.63,262.556 L170.613,262.556 L170.613,254.074 L183.086,254.074 L183.086,262.555 L191.067,262.556 L191.067,207.678 L162.63,207.678 L162.63,262.556 M219.455,1.632 C226.938,1.633 233.473,7.122 233.471,15.602 L238.959,15.602 L238.959,76.967 L290.845,76.967 L290.845,1.633 L306.313,1.633 C314.296,1.633 320.282,7.619 320.281,15.602 L325.768,15.602 L325.768,76.967 L353.707,76.967 L353.709,112.389 L280.869,112.389 L280.869,148.309 L336.746,148.309 L336.746,220.151 L281.866,220.151 L281.866,208.177 L250.934,208.176 L250.862,317.934 L191.067,317.934 L191.067,270.039 L183.086,270.04 L183.086,278.522 L170.613,278.522 L170.613,270.04 L162.63,270.039 L162.63,317.934 L103.26,317.934 L103.262,270.041 L95.281,270.04 L95.281,278.522 L82.806,278.522 L82.806,270.04 L74.824,270.041 L74.824,317.934 L15.455,317.934 L15.456,272.036 L6.974,272.036 L6.974,260.062 L15.456,260.062 L15.455,163.276 L73.827,163.276 L73.827,112.389 L2.485,112.388 L2.485,76.966 L15.457,76.966 L15.458,22.087 L22.439,22.088 L22.439,1.633 L43.393,1.632 C50.877,1.634 57.363,7.123 57.363,15.602 L62.849,15.602 L62.849,76.967 L114.235,76.967 L114.235,1.633 L129.705,1.633 C137.188,1.633 143.672,7.123 143.672,15.602 L149.159,15.602 L149.159,76.967 L172.111,76.967 L172.111,112.389 L94.781,112.389 L94.781,130.848 L103.262,130.848 L103.262,148.309 L94.781,148.309 L94.781,163.276 L259.416,163.276 L259.416,148.309 L250.936,148.309 L250.936,130.848 L259.417,130.848 L259.416,112.389 L181.589,112.389 L181.589,76.967 L204.038,76.967 L204.038,1.633 L219.455,1.632" id="Fill-1732" fill="#151616"></path>
        <polygon id="Fill-1736" fill="#FFC67C" points="30.922 317.934 57.862 317.934 57.862 307.9557 30.922 307.9557"></polygon>
        <polyline id="Fill-1737" fill="#85BDDB" points="34.913 92.931 2.482 92.931 2.482 76.966 15.456 76.966 15.456 22.087 34.913 22.087"></polyline>
        <polyline id="Fill-1738" fill="#85BDDB" points="94.781 92.931 126.71 92.931 126.71 22.086 114.238 22.086 114.238 76.967 94.781 76.966"></polyline>
        <path d="M353.709,92.931 L309.806,92.931 L309.806,2.032 C315.757,3.413 320.284,8.616 320.284,15.6 L325.771,15.6 L325.771,76.966 L353.709,76.966" id="Fill-1739" fill="#85BDDB"></path>
        <path d="M258.918,92.931 L222.997,92.931 L222.997,2.032 C228.948,3.413 233.475,8.616 233.475,15.6 L238.961,15.6 L238.961,76.966 L258.918,76.966" id="Fill-1740" fill="#85BDDB"></path>
        <path d="M172.11,92.931 L133.196,92.931 L133.196,2.032 C139.147,3.413 143.674,8.616 143.674,15.6 L149.16,15.6 L149.16,76.966 L163.629,76.966 L163.629,89.439 L172.11,89.438" id="Fill-1741" fill="#85BDDB"></path>
        <polyline id="Fill-1742" fill="#85BDDB" points="82.309 92.931 41.4 92.931 41.4 15.6 62.852 15.6 62.852 76.966 82.309 76.966"></polyline>
        <polygon id="Fill-1743" fill="#FFC67C" points="30.922 192.212 57.862 192.212 57.862 179.239 30.922 179.239"></polygon>
        <polygon id="Fill-1744" fill="#FFC67C" points="30.922 207.678 57.862 207.678 57.862 196.701 30.922 196.701"></polygon>
        <polygon id="Fill-1745" fill="#FFC67C" points="134.193 227.134 142.6753 227.134 142.6753 214.162 134.193 214.162"></polygon>
        <polyline id="Fill-1746" fill="#FFC67C" points="142.675 232.123 119.227 232.123 119.227 214.162 133.695 214.162 133.695 227.632 142.675 227.632"></polyline>
        <polygon id="Fill-1747" fill="#FFDB6A" points="281.868 220.15 299.33 220.15 299.33 201.192 281.868 201.192"></polygon>
        <polygon id="Fill-1748" fill="#FFDB6A" points="239.461 234.119 250.936 234.119 250.936 197.699 239.461 197.699"></polygon>
        <polygon id="Fill-1749" fill="#FFC67C" points="119.227 214.117 156.733 214.117 156.733 196.097 119.227 196.097"></polygon>
        <polygon id="Fill-1750" fill="#BCEA8B" points="176.1 207.677 191.067 207.677 191.067 197.2 176.1 197.2"></polygon>
        <polygon id="Fill-1751" fill="#85BDDB" points="191.067 262.556 212.52 262.556 212.52 196.701 191.067 196.701"></polygon>
        <polygon id="Fill-1752" fill="#FFC67C" points="147.664 262.556 162.631 262.556 162.631 214.163 147.664 214.163"></polygon>
        <polygon id="Fill-1753" fill="#FFC67C" points="119.227 262.556 144.171 262.556 144.171 237.112 119.227 237.112"></polygon>
        <polygon id="Fill-1754" fill="#FFC67C" points="103.262 262.556 114.238 262.556 114.238 214.162 103.262 214.162"></polygon>
        <polygon id="Fill-1755" fill="#FFC67C" points="30.922 262.556 57.862 262.556 57.862 255.0716 30.922 255.0716"></polygon>
        <polygon id="Fill-1756" fill="#FFC67C" points="30.922 302.967 57.862 302.967 57.862 270.039 30.922 270.039"></polygon>
        <polyline id="Fill-1757" fill="#85BDDB" points="272.389 76.966 290.848 76.966 290.849 22.087 303.321 22.087 303.319 92.932 272.389 92.932"></polyline>
        <polyline id="Fill-1758" fill="#85BDDB" points="181.588 76.966 204.039 76.966 204.039 22.087 216.513 22.087 216.511 92.932 181.588 92.932"></polyline>
        <polyline id="Fill-1759" fill="#85BDDB" points="280.869 99.416 340.737 99.416 340.735 112.388 280.869 112.388 280.869 99.416"></polyline>
        <polyline id="Fill-1760" fill="#85BDDB" points="181.589 99.416 259.418 99.416 259.414 112.388 181.589 112.388 181.589 99.416"></polyline>
        <polygon id="Fill-1761" fill="#FFDB6A" points="258.914 92.931 272.389 92.931 272.389 76.966 258.914 76.966"></polygon>
        <polyline id="Fill-1762" fill="#AFB0B0" points="207.532 307.955 234.477 307.956 234.477 317.934 207.532 317.934"></polyline>
        <polyline id="Fill-1763" fill="#FFDB6A" points="206.631 305.811 235.078 305.812 235.084 317.924 206.637 317.925"></polyline>
        <polygon id="Fill-1764" fill="#85BDDB" points="82.309 92.931 94.781 92.931 94.781 76.966 82.309 76.966"></polygon>
        <polyline id="Fill-1765" fill="#85BDDB" points="94.781 99.416 172.112 99.416 172.109 112.388 94.781 112.388 94.781 99.416"></polyline>
        <polyline id="Fill-1766" fill="#85BDDB" points="14.957 99.416 73.828 99.416 73.825 112.388 14.957 112.388 14.957 99.416"></polyline>
        <polyline id="Fill-1767" fill="#FFC67C" points="62.852 179.239 103.263 179.239 103.262 192.211 62.852 192.211"></polyline>
        <polyline id="Fill-1768" fill="#FFC67C" points="74.826 262.556 62.852 262.556 62.852 196.701 103.262 196.701 103.261 207.677 74.826 207.677 74.826 262.556"></polyline>
        <polygon id="Fill-1769" fill="#FFC67C" points="62.851 317.934 74.825 317.934 74.825 270.039 62.851 270.039"></polygon>
        <polygon id="Fill-1770" fill="#FFC67C" points="15.456 317.934 25.933 317.934 25.933 270.039 15.456 270.039"></polygon>
        <polygon id="Fill-1771" fill="#FFC67C" points="15.456 262.556 25.933 262.556 25.933 179.24 15.456 179.24"></polygon>
        <path d="M234.472,302.967 L207.532,302.967 L207.532,270.039 L234.472,270.039 L234.472,302.967 M147.664,262.556 L147.664,214.163 L162.63,214.163 L162.631,197.2 L212.52,197.2 L212.52,262.556 L162.628,262.557 L147.664,262.556 M142.675,207.676 L142.675,232.123 L119.226,232.123 L119.226,197.2 L156.643,197.2 L156.643,207.676 L142.675,207.676 M142.675,262.556 L119.226,262.556 L119.226,237.111 L142.675,237.111 L142.675,262.556 M142.675,278.021 L119.226,278.021 L119.226,270.039 L142.675,270.039 L142.675,278.021 M142.675,302.965 L119.227,302.966 L119.227,283.009 L142.675,283.009 L142.675,302.965 M114.238,262.556 L103.26,262.557 L62.851,262.556 L62.851,197.2 L103.262,197.2 L103.261,214.163 L114.238,214.163 L114.238,262.556 M62.851,179.239 L103.261,179.239 L103.261,192.21 L62.851,192.21 L62.851,179.239 M119.226,178.741 L156.644,178.741 L156.644,192.211 L119.226,192.211 L119.226,178.741 M162.631,178.242 L212.52,178.242 L212.52,192.211 L162.631,192.211 L162.631,178.242 M217.509,197.2 L233.973,197.2 L233.973,262.556 L217.509,262.556 L217.509,197.2 M217.509,178.242 L233.973,178.242 L233.973,192.211 L217.509,192.211 L217.509,178.242 M57.862,192.211 L30.922,192.211 L30.922,179.24 L57.862,179.24 L57.862,192.211 M57.862,262.556 L30.922,262.556 L30.922,197.2 L57.862,197.2 L57.862,262.556 M57.862,302.966 L30.922,302.966 L30.922,270.039 L57.862,270.039 L57.862,302.966 M353.709,99.415 L353.709,92.929 L309.805,92.929 L309.805,2.015 C307.878,1.465 303.318,1.632 303.318,1.632 L303.318,92.929 L222.998,92.929 L222.998,2.029 C221.377,1.451 216.51,1.632 216.51,1.632 L216.51,92.929 L181.588,92.93 L181.588,99.415 L259.414,99.415 L259.414,163.275 L272.388,163.275 L272.388,171.755 L162.631,171.756 L162.631,163.275 L156.642,163.275 L156.642,171.756 L82.308,171.755 L82.308,163.275 L94.78,163.275 L94.78,99.416 L172.109,99.416 L172.109,92.929 L133.193,92.93 L133.193,2.029 L126.708,1.632 L126.708,92.93 L41.396,92.93 L41.396,1.632 L34.911,1.632 L34.911,92.93 L2.484,92.93 L2.484,99.416 L82.306,99.416 L82.306,112.387 L73.825,112.387 L73.825,130.846 L82.308,130.846 L82.308,148.307 L73.827,148.308 L73.827,171.756 L15.456,171.756 L15.456,179.239 L25.932,179.239 L25.932,262.556 L15.456,262.556 L15.456,270.038 L25.932,270.038 L25.932,317.933 L30.922,317.933 L30.922,307.955 L57.862,307.955 L57.862,317.933 L62.851,317.933 L62.851,270.039 L114.238,270.039 L114.238,317.933 L119.227,317.933 L119.227,307.955 L142.675,307.954 L142.675,317.932 L147.664,317.932 L147.664,270.039 L202.541,270.039 L202.541,317.934 L207.531,317.934 L207.531,307.956 L234.472,307.956 L234.472,317.934 L239.461,317.934 L239.461,178.242 L271.889,178.242 L271.889,197.2 L265.403,197.2 L265.403,208.175 L280.869,208.175 L280.869,148.307 L272.386,148.307 L272.386,130.846 L280.867,130.846 L280.867,112.386 L272.388,112.386 L272.388,99.415 L353.709,99.415" id="Fill-1782" fill="#FFFFFF"></path>
        <polygon id="Fill-1784" fill="#AFB0B0" points="147.606 280.516 162.631 280.516 162.631 270.039 147.606 270.039"></polygon>
        <polyline id="Fill-1791" fill="#4E4E4D" points="15.456 163.275 34.415 163.275 34.414 171.757 15.456 171.757 15.456 163.275"></polyline>
        <polygon id="Fill-1792" fill="#4E4E4D" points="107.253 171.757 126.212 171.757 126.212 163.2755 107.253 163.2755"></polygon>
        <polygon id="Fill-1793" fill="#4E4E4D" points="228.485 171.756 247.444 171.756 247.444 163.2754 228.485 163.2754"></polygon>
        <polygon id="Fill-1794" fill="#4E4E4D" points="114.238 22.087 126.71 22.087 126.71 1.632 114.238 1.632"></polygon>
        <polygon id="Fill-1795" fill="#4E4E4D" points="204.04 22.087 216.512 22.087 216.512 1.632 204.04 1.632"></polygon>
        <polygon id="Fill-1796" fill="#4E4E4D" points="2.484 112.388 14.957 112.388 14.957 99.417 2.484 99.417"></polygon>
        <polygon id="Fill-1797" fill="#4E4E4D" points="290.848 22.087 303.32 22.087 303.32 1.632 290.848 1.632"></polygon>
        <polygon id="Fill-1798" fill="#4E4E4D" points="340.737 112.388 353.708 112.388 353.708 99.417 340.737 99.417"></polygon>
    </g>
</svg>